<?xml version="1.0" encoding="UTF-8"?>
<svg version="1.1" xmlns="http://www.w3.org/2000/svg" width="32" height="32">
<path d="M0 0 C1.8871875 0.00773438 1.8871875 0.00773438 3.8125 0.015625 C5.070625 0.01046875 6.32875 0.0053125 7.625 0 C10.8125 0.265625 10.8125 0.265625 12.8125 2.265625 C13.078125 4.76171875 13.078125 4.76171875 13.0625 7.703125 C13.06765625 8.67121094 13.0728125 9.63929687 13.078125 10.63671875 C12.8125 13.265625 12.8125 13.265625 10.8125 16.265625 C8.5703125 16.77734375 8.5703125 16.77734375 5.9375 16.953125 C5.07382812 17.01886719 4.21015625 17.08460937 3.3203125 17.15234375 C1.15292314 17.25024763 -1.01790054 17.265625 -3.1875 17.265625 C-5.15411413 13.97232674 -5.45805005 11.45265927 -5.4375 7.640625 C-5.44265625 6.67898437 -5.4478125 5.71734375 -5.453125 4.7265625 C-5.02905926 0.79771815 -3.83711654 0.31975971 0 0 Z " fill="#2C3032" transform="translate(12.1875,6.734375)"/>
<path d="M0 0 C2.29141286 -0.05384521 4.58318188 -0.09272087 6.875 -0.125 C8.78925781 -0.15980469 8.78925781 -0.15980469 10.7421875 -0.1953125 C14 0 14 0 16 2 C16 3.32 16 4.64 16 6 C14.35 6 12.7 6 11 6 C10.67 7.98 10.34 9.96 10 12 C8.02 12 6.04 12 4 12 C3.67 9.36 3.34 6.72 3 4 C1.68 3.67 0.36 3.34 -1 3 C-0.67 2.01 -0.34 1.02 0 0 Z " fill="#7A8185" transform="translate(9,7)"/>
<path d="M0 0 C-0.33 2.64 -0.66 5.28 -1 8 C-2.98 8 -4.96 8 -7 8 C-7.33 5.36 -7.66 2.72 -8 0 C-4.71023192 -1.09658936 -3.28696233 -0.79953138 0 0 Z " fill="#91979A" transform="translate(20,11)"/>
<path d="M0 0 C2.31 0.33 4.62 0.66 7 1 C6.01 1.495 6.01 1.495 5 2 C5.33 3.98 5.66 5.96 6 8 C5.34 7.34 4.68 6.68 4 6 C2.02 6.99 2.02 6.99 0 8 C0 5.36 0 2.72 0 0 Z " fill="#474D50" transform="translate(7,9)"/>
<path d="M0 0 C1.65 0 3.3 0 5 0 C5 2.31 5 4.62 5 7 C4.67 5.68 4.34 4.36 4 3 C2.68 3 1.36 3 0 3 C0 2.01 0 1.02 0 0 Z " fill="#3B4043" transform="translate(20,13)"/>
<path d="M0 0 C2.31 0 4.62 0 7 0 C7 0.99 7 1.98 7 3 C5.35 3 3.7 3 2 3 C2 2.34 2 1.68 2 1 C1.34 0.67 0.68 0.34 0 0 Z " fill="#52595C" transform="translate(18,10)"/>
</svg>
